<mxfile host="app.diagrams.net" agent="Mozilla/5.0 (X11; Linux x86_64) AppleWebKit/537.36 (KHTML, like Gecko) Chrome/137.0.0.0 Safari/537.36" version="27.1.5">
  <diagram name="Page-1" id="zuDCufP4KTyBF8ttzN2I">
    <mxGraphModel dx="1566" dy="1805" grid="1" gridSize="10" guides="1" tooltips="1" connect="1" arrows="1" fold="1" page="1" pageScale="1" pageWidth="850" pageHeight="1100" math="0" shadow="0">
      <root>
        <mxCell id="0" />
        <mxCell id="1" parent="0" />
        <mxCell id="gARrUC3Ezz216cD88_49-36" value="Verifikasi" style="shape=umlFrame;whiteSpace=wrap;html=1;pointerEvents=0;" vertex="1" parent="1">
          <mxGeometry x="10" y="-790" width="550" height="220" as="geometry" />
        </mxCell>
        <mxCell id="HW2FCdWVEt_NRKpyhM9x-19" value="Login" style="swimlane;childLayout=stackLayout;resizeParent=1;resizeParentMax=0;startSize=20;html=1;" parent="1" vertex="1">
          <mxGeometry x="-680" y="-925" width="510" height="550" as="geometry" />
        </mxCell>
        <mxCell id="HW2FCdWVEt_NRKpyhM9x-20" value="User" style="swimlane;startSize=20;html=1;" parent="HW2FCdWVEt_NRKpyhM9x-19" vertex="1">
          <mxGeometry y="20" width="260" height="530" as="geometry" />
        </mxCell>
        <mxCell id="HW2FCdWVEt_NRKpyhM9x-23" value="" style="ellipse;whiteSpace=wrap;html=1;aspect=fixed;" parent="HW2FCdWVEt_NRKpyhM9x-20" vertex="1">
          <mxGeometry x="107.5" y="45" width="45" height="45" as="geometry" />
        </mxCell>
        <mxCell id="HW2FCdWVEt_NRKpyhM9x-21" value="System" style="swimlane;startSize=20;html=1;" parent="HW2FCdWVEt_NRKpyhM9x-19" vertex="1">
          <mxGeometry x="260" y="20" width="250" height="530" as="geometry" />
        </mxCell>
        <mxCell id="HW2FCdWVEt_NRKpyhM9x-29" value="" style="edgeStyle=orthogonalEdgeStyle;rounded=0;orthogonalLoop=1;jettySize=auto;html=1;" parent="HW2FCdWVEt_NRKpyhM9x-21" source="HW2FCdWVEt_NRKpyhM9x-26" target="HW2FCdWVEt_NRKpyhM9x-28" edge="1">
          <mxGeometry relative="1" as="geometry" />
        </mxCell>
        <mxCell id="HW2FCdWVEt_NRKpyhM9x-33" value="" style="edgeStyle=orthogonalEdgeStyle;rounded=0;orthogonalLoop=1;jettySize=auto;html=1;" parent="HW2FCdWVEt_NRKpyhM9x-21" source="HW2FCdWVEt_NRKpyhM9x-27" target="HW2FCdWVEt_NRKpyhM9x-32" edge="1">
          <mxGeometry relative="1" as="geometry" />
        </mxCell>
        <mxCell id="HW2FCdWVEt_NRKpyhM9x-27" value="Menampilkan Dashboard" style="rounded=1;whiteSpace=wrap;html=1;" parent="HW2FCdWVEt_NRKpyhM9x-21" vertex="1">
          <mxGeometry x="65" y="365" width="120" height="60" as="geometry" />
        </mxCell>
        <mxCell id="HW2FCdWVEt_NRKpyhM9x-30" value="" style="edgeStyle=orthogonalEdgeStyle;rounded=0;orthogonalLoop=1;jettySize=auto;html=1;" parent="HW2FCdWVEt_NRKpyhM9x-21" source="HW2FCdWVEt_NRKpyhM9x-48" target="HW2FCdWVEt_NRKpyhM9x-27" edge="1">
          <mxGeometry relative="1" as="geometry" />
        </mxCell>
        <mxCell id="HW2FCdWVEt_NRKpyhM9x-28" value="" style="shape=collate;whiteSpace=wrap;html=1;" parent="HW2FCdWVEt_NRKpyhM9x-21" vertex="1">
          <mxGeometry x="107.5" y="205" width="35" height="35" as="geometry" />
        </mxCell>
        <mxCell id="HW2FCdWVEt_NRKpyhM9x-32" value="" style="ellipse;whiteSpace=wrap;html=1;aspect=fixed;" parent="HW2FCdWVEt_NRKpyhM9x-21" vertex="1">
          <mxGeometry x="112.5" y="465" width="25" height="25" as="geometry" />
        </mxCell>
        <mxCell id="HW2FCdWVEt_NRKpyhM9x-48" value="Level Akses Diverifikasi sebagai (Admin/Apoteker/Manajer)" style="rounded=1;whiteSpace=wrap;html=1;" parent="HW2FCdWVEt_NRKpyhM9x-21" vertex="1">
          <mxGeometry x="32.5" y="265" width="185" height="60" as="geometry" />
        </mxCell>
        <mxCell id="HW2FCdWVEt_NRKpyhM9x-49" value="" style="edgeStyle=orthogonalEdgeStyle;rounded=0;orthogonalLoop=1;jettySize=auto;html=1;" parent="HW2FCdWVEt_NRKpyhM9x-21" source="HW2FCdWVEt_NRKpyhM9x-28" target="HW2FCdWVEt_NRKpyhM9x-48" edge="1">
          <mxGeometry relative="1" as="geometry">
            <mxPoint x="-295" y="-665" as="sourcePoint" />
            <mxPoint x="-295" y="-550" as="targetPoint" />
          </mxGeometry>
        </mxCell>
        <mxCell id="HW2FCdWVEt_NRKpyhM9x-24" value="Login" style="rounded=1;whiteSpace=wrap;html=1;" parent="HW2FCdWVEt_NRKpyhM9x-21" vertex="1">
          <mxGeometry x="-190" y="127.5" width="120" height="35" as="geometry" />
        </mxCell>
        <mxCell id="HW2FCdWVEt_NRKpyhM9x-26" value="Memverifikasi Level Akses" style="rounded=1;whiteSpace=wrap;html=1;" parent="HW2FCdWVEt_NRKpyhM9x-21" vertex="1">
          <mxGeometry x="65" y="115" width="120" height="60" as="geometry" />
        </mxCell>
        <mxCell id="HW2FCdWVEt_NRKpyhM9x-31" style="edgeStyle=orthogonalEdgeStyle;rounded=0;orthogonalLoop=1;jettySize=auto;html=1;" parent="HW2FCdWVEt_NRKpyhM9x-21" source="HW2FCdWVEt_NRKpyhM9x-24" target="HW2FCdWVEt_NRKpyhM9x-26" edge="1">
          <mxGeometry relative="1" as="geometry" />
        </mxCell>
        <mxCell id="HW2FCdWVEt_NRKpyhM9x-25" value="" style="edgeStyle=orthogonalEdgeStyle;rounded=0;orthogonalLoop=1;jettySize=auto;html=1;" parent="HW2FCdWVEt_NRKpyhM9x-19" source="HW2FCdWVEt_NRKpyhM9x-23" target="HW2FCdWVEt_NRKpyhM9x-24" edge="1">
          <mxGeometry relative="1" as="geometry" />
        </mxCell>
        <mxCell id="gARrUC3Ezz216cD88_49-2" value="Actor" style="shape=umlActor;verticalLabelPosition=bottom;verticalAlign=top;html=1;" vertex="1" parent="1">
          <mxGeometry x="110" y="-925" width="30" height="60" as="geometry" />
        </mxCell>
        <mxCell id="gARrUC3Ezz216cD88_49-3" value="Login" style="shape=umlBoundary;whiteSpace=wrap;html=1;" vertex="1" parent="1">
          <mxGeometry x="190" y="-917.5" width="81.25" height="65" as="geometry" />
        </mxCell>
        <mxCell id="gARrUC3Ezz216cD88_49-6" value="Acc&lt;br&gt;Database" style="ellipse;shape=umlControl;whiteSpace=wrap;html=1;" vertex="1" parent="1">
          <mxGeometry x="400" y="-925" width="65.63" height="75" as="geometry" />
        </mxCell>
        <mxCell id="gARrUC3Ezz216cD88_49-9" value="Dashboard" style="shape=umlBoundary;whiteSpace=wrap;html=1;" vertex="1" parent="1">
          <mxGeometry x="490" y="-917.5" width="81.25" height="65" as="geometry" />
        </mxCell>
        <mxCell id="gARrUC3Ezz216cD88_49-16" value="" style="endArrow=none;dashed=1;html=1;rounded=0;" edge="1" parent="1" source="gARrUC3Ezz216cD88_49-17">
          <mxGeometry width="50" height="50" relative="1" as="geometry">
            <mxPoint x="129" y="-580" as="sourcePoint" />
            <mxPoint x="125" y="-840" as="targetPoint" />
          </mxGeometry>
        </mxCell>
        <mxCell id="gARrUC3Ezz216cD88_49-18" value="" style="endArrow=none;dashed=1;html=1;rounded=0;" edge="1" parent="1" source="gARrUC3Ezz216cD88_49-49" target="gARrUC3Ezz216cD88_49-17">
          <mxGeometry width="50" height="50" relative="1" as="geometry">
            <mxPoint x="125" y="-580" as="sourcePoint" />
            <mxPoint x="125" y="-740" as="targetPoint" />
          </mxGeometry>
        </mxCell>
        <mxCell id="gARrUC3Ezz216cD88_49-17" value="" style="html=1;points=[[0,0,0,0,5],[0,1,0,0,-5],[1,0,0,0,5],[1,1,0,0,-5]];perimeter=orthogonalPerimeter;outlineConnect=0;targetShapes=umlLifeline;portConstraint=eastwest;newEdgeStyle={&quot;curved&quot;:0,&quot;rounded&quot;:0};" vertex="1" parent="1">
          <mxGeometry x="120" y="-820" width="10" height="80" as="geometry" />
        </mxCell>
        <mxCell id="gARrUC3Ezz216cD88_49-19" value="" style="endArrow=none;dashed=1;html=1;rounded=0;" edge="1" parent="1" source="gARrUC3Ezz216cD88_49-21">
          <mxGeometry width="50" height="50" relative="1" as="geometry">
            <mxPoint x="239" y="-567.5" as="sourcePoint" />
            <mxPoint x="235" y="-852.5" as="targetPoint" />
          </mxGeometry>
        </mxCell>
        <mxCell id="gARrUC3Ezz216cD88_49-20" value="" style="endArrow=none;dashed=1;html=1;rounded=0;" edge="1" parent="1" target="gARrUC3Ezz216cD88_49-21" source="gARrUC3Ezz216cD88_49-43">
          <mxGeometry width="50" height="50" relative="1" as="geometry">
            <mxPoint x="235" y="-567.5" as="sourcePoint" />
            <mxPoint x="235" y="-727.5" as="targetPoint" />
          </mxGeometry>
        </mxCell>
        <mxCell id="gARrUC3Ezz216cD88_49-21" value="" style="html=1;points=[[0,0,0,0,5],[0,1,0,0,-5],[1,0,0,0,5],[1,1,0,0,-5]];perimeter=orthogonalPerimeter;outlineConnect=0;targetShapes=umlLifeline;portConstraint=eastwest;newEdgeStyle={&quot;curved&quot;:0,&quot;rounded&quot;:0};" vertex="1" parent="1">
          <mxGeometry x="230" y="-820" width="10" height="100" as="geometry" />
        </mxCell>
        <mxCell id="gARrUC3Ezz216cD88_49-25" value="" style="endArrow=none;dashed=1;html=1;rounded=0;" edge="1" parent="1" source="gARrUC3Ezz216cD88_49-27">
          <mxGeometry width="50" height="50" relative="1" as="geometry">
            <mxPoint x="436.81999999999994" y="-557.5" as="sourcePoint" />
            <mxPoint x="432.81999999999994" y="-842.5" as="targetPoint" />
          </mxGeometry>
        </mxCell>
        <mxCell id="gARrUC3Ezz216cD88_49-26" value="" style="endArrow=none;dashed=1;html=1;rounded=0;" edge="1" parent="1" target="gARrUC3Ezz216cD88_49-27">
          <mxGeometry width="50" height="50" relative="1" as="geometry">
            <mxPoint x="433" y="-560" as="sourcePoint" />
            <mxPoint x="432.81999999999994" y="-717.5" as="targetPoint" />
          </mxGeometry>
        </mxCell>
        <mxCell id="gARrUC3Ezz216cD88_49-27" value="" style="html=1;points=[[0,0,0,0,5],[0,1,0,0,-5],[1,0,0,0,5],[1,1,0,0,-5]];perimeter=orthogonalPerimeter;outlineConnect=0;targetShapes=umlLifeline;portConstraint=eastwest;newEdgeStyle={&quot;curved&quot;:0,&quot;rounded&quot;:0};" vertex="1" parent="1">
          <mxGeometry x="427.81" y="-810" width="10" height="60" as="geometry" />
        </mxCell>
        <mxCell id="gARrUC3Ezz216cD88_49-28" value="" style="endArrow=none;dashed=1;html=1;rounded=0;" edge="1" parent="1" source="gARrUC3Ezz216cD88_49-30">
          <mxGeometry width="50" height="50" relative="1" as="geometry">
            <mxPoint x="539" y="-565" as="sourcePoint" />
            <mxPoint x="535" y="-850" as="targetPoint" />
          </mxGeometry>
        </mxCell>
        <mxCell id="gARrUC3Ezz216cD88_49-29" value="" style="endArrow=none;dashed=1;html=1;rounded=0;" edge="1" parent="1" target="gARrUC3Ezz216cD88_49-30">
          <mxGeometry width="50" height="50" relative="1" as="geometry">
            <mxPoint x="535" y="-560" as="sourcePoint" />
            <mxPoint x="535" y="-725" as="targetPoint" />
          </mxGeometry>
        </mxCell>
        <mxCell id="gARrUC3Ezz216cD88_49-30" value="" style="html=1;points=[[0,0,0,0,5],[0,1,0,0,-5],[1,0,0,0,5],[1,1,0,0,-5]];perimeter=orthogonalPerimeter;outlineConnect=0;targetShapes=umlLifeline;portConstraint=eastwest;newEdgeStyle={&quot;curved&quot;:0,&quot;rounded&quot;:0};" vertex="1" parent="1">
          <mxGeometry x="530" y="-740" width="10" height="20" as="geometry" />
        </mxCell>
        <mxCell id="gARrUC3Ezz216cD88_49-31" value="Login" style="html=1;verticalAlign=bottom;endArrow=block;curved=0;rounded=0;" edge="1" parent="1">
          <mxGeometry x="0.0061" width="80" relative="1" as="geometry">
            <mxPoint x="130" y="-810" as="sourcePoint" />
            <mxPoint x="230" y="-810" as="targetPoint" />
            <mxPoint as="offset" />
          </mxGeometry>
        </mxCell>
        <mxCell id="gARrUC3Ezz216cD88_49-32" value="Memverifikasi akun" style="html=1;verticalAlign=bottom;endArrow=block;curved=0;rounded=0;" edge="1" parent="1">
          <mxGeometry x="0.0089" width="80" relative="1" as="geometry">
            <mxPoint x="240" y="-800" as="sourcePoint" />
            <mxPoint x="427.80999999999995" y="-800" as="targetPoint" />
            <mxPoint as="offset" />
          </mxGeometry>
        </mxCell>
        <mxCell id="gARrUC3Ezz216cD88_49-33" value="&lt;font style=&quot;font-size: 10px;&quot;&gt;Akun terverifikasi dengan role (...)&lt;/font&gt;" style="html=1;verticalAlign=bottom;endArrow=open;dashed=1;endSize=8;curved=0;rounded=0;" edge="1" parent="1">
          <mxGeometry x="-0.0024" relative="1" as="geometry">
            <mxPoint x="427.80999999999995" y="-760" as="sourcePoint" />
            <mxPoint x="240" y="-760" as="targetPoint" />
            <mxPoint as="offset" />
          </mxGeometry>
        </mxCell>
        <mxCell id="gARrUC3Ezz216cD88_49-34" value="Arahkan ke dashboard" style="html=1;verticalAlign=bottom;endArrow=block;curved=0;rounded=0;" edge="1" parent="1">
          <mxGeometry x="0.0013" width="80" relative="1" as="geometry">
            <mxPoint x="240.00000000000023" y="-730" as="sourcePoint" />
            <mxPoint x="530.0000000000002" y="-730" as="targetPoint" />
            <mxPoint as="offset" />
          </mxGeometry>
        </mxCell>
        <mxCell id="gARrUC3Ezz216cD88_49-37" value="[Akun terverifikasi]" style="text;html=1;align=center;verticalAlign=middle;resizable=0;points=[];autosize=1;strokeColor=none;fillColor=none;" vertex="1" parent="1">
          <mxGeometry x="4" y="-764" width="120" height="30" as="geometry" />
        </mxCell>
        <mxCell id="gARrUC3Ezz216cD88_49-39" value="" style="endArrow=none;dashed=1;html=1;rounded=0;entryX=0.995;entryY=0.36;entryDx=0;entryDy=0;entryPerimeter=0;" edge="1" parent="1" target="gARrUC3Ezz216cD88_49-36">
          <mxGeometry width="50" height="50" relative="1" as="geometry">
            <mxPoint x="10" y="-710" as="sourcePoint" />
            <mxPoint x="250" y="-800" as="targetPoint" />
          </mxGeometry>
        </mxCell>
        <mxCell id="gARrUC3Ezz216cD88_49-40" value="[Gagal]" style="text;html=1;align=center;verticalAlign=middle;resizable=0;points=[];autosize=1;strokeColor=none;fillColor=none;" vertex="1" parent="1">
          <mxGeometry x="4" y="-710" width="60" height="30" as="geometry" />
        </mxCell>
        <mxCell id="gARrUC3Ezz216cD88_49-41" value="" style="html=1;points=[[0,0,0,0,5],[0,1,0,0,-5],[1,0,0,0,5],[1,1,0,0,-5]];perimeter=orthogonalPerimeter;outlineConnect=0;targetShapes=umlLifeline;portConstraint=eastwest;newEdgeStyle={&quot;curved&quot;:0,&quot;rounded&quot;:0};" vertex="1" parent="1">
          <mxGeometry x="427.81" y="-700" width="10" height="110" as="geometry" />
        </mxCell>
        <mxCell id="gARrUC3Ezz216cD88_49-42" value="Verifikasi gagal" style="html=1;verticalAlign=bottom;endArrow=open;dashed=1;endSize=8;curved=0;rounded=0;" edge="1" parent="1">
          <mxGeometry x="-0.0036" relative="1" as="geometry">
            <mxPoint x="427.80999999999995" y="-690.3" as="sourcePoint" />
            <mxPoint x="240" y="-690.3" as="targetPoint" />
            <mxPoint as="offset" />
          </mxGeometry>
        </mxCell>
        <mxCell id="gARrUC3Ezz216cD88_49-44" value="" style="endArrow=none;dashed=1;html=1;rounded=0;" edge="1" parent="1" target="gARrUC3Ezz216cD88_49-43">
          <mxGeometry width="50" height="50" relative="1" as="geometry">
            <mxPoint x="235" y="-560" as="sourcePoint" />
            <mxPoint x="235" y="-720" as="targetPoint" />
          </mxGeometry>
        </mxCell>
        <mxCell id="gARrUC3Ezz216cD88_49-43" value="" style="html=1;points=[[0,0,0,0,5],[0,1,0,0,-5],[1,0,0,0,5],[1,1,0,0,-5]];perimeter=orthogonalPerimeter;outlineConnect=0;targetShapes=umlLifeline;portConstraint=eastwest;newEdgeStyle={&quot;curved&quot;:0,&quot;rounded&quot;:0};" vertex="1" parent="1">
          <mxGeometry x="230" y="-700" width="10" height="110" as="geometry" />
        </mxCell>
        <mxCell id="gARrUC3Ezz216cD88_49-45" value="Akun terdaftar?" style="html=1;verticalAlign=bottom;endArrow=block;curved=0;rounded=0;" edge="1" parent="1">
          <mxGeometry width="80" relative="1" as="geometry">
            <mxPoint x="240.00000000000023" y="-660" as="sourcePoint" />
            <mxPoint x="427.80999999999995" y="-660" as="targetPoint" />
          </mxGeometry>
        </mxCell>
        <mxCell id="gARrUC3Ezz216cD88_49-50" value="" style="endArrow=none;dashed=1;html=1;rounded=0;" edge="1" parent="1" target="gARrUC3Ezz216cD88_49-49">
          <mxGeometry width="50" height="50" relative="1" as="geometry">
            <mxPoint x="125" y="-560" as="sourcePoint" />
            <mxPoint x="125" y="-740" as="targetPoint" />
          </mxGeometry>
        </mxCell>
        <mxCell id="gARrUC3Ezz216cD88_49-49" value="" style="html=1;points=[[0,0,0,0,5],[0,1,0,0,-5],[1,0,0,0,5],[1,1,0,0,-5]];perimeter=orthogonalPerimeter;outlineConnect=0;targetShapes=umlLifeline;portConstraint=eastwest;newEdgeStyle={&quot;curved&quot;:0,&quot;rounded&quot;:0};" vertex="1" parent="1">
          <mxGeometry x="120" y="-620" width="10" height="30" as="geometry" />
        </mxCell>
        <mxCell id="gARrUC3Ezz216cD88_49-51" value="&lt;font style=&quot;font-size: 10px;&quot;&gt;Password / id Salah&lt;/font&gt;" style="html=1;verticalAlign=bottom;endArrow=block;curved=0;rounded=0;" edge="1" parent="1">
          <mxGeometry width="80" relative="1" as="geometry">
            <mxPoint x="230" y="-610.36" as="sourcePoint" />
            <mxPoint x="130" y="-610.3600000000001" as="targetPoint" />
          </mxGeometry>
        </mxCell>
        <mxCell id="gARrUC3Ezz216cD88_49-53" value="Akun terdaftar" style="html=1;verticalAlign=bottom;endArrow=open;dashed=1;endSize=8;curved=0;rounded=0;" edge="1" parent="1">
          <mxGeometry x="-0.0036" relative="1" as="geometry">
            <mxPoint x="427.80999999999995" y="-630.36" as="sourcePoint" />
            <mxPoint x="240" y="-630.36" as="targetPoint" />
            <mxPoint as="offset" />
          </mxGeometry>
        </mxCell>
      </root>
    </mxGraphModel>
  </diagram>
</mxfile>
